<svg
width="93"
height="49"
viewBox="0 0 93 49"
fill="none"
xmlns="http://www.w3.org/2000/svg"
>
<path
d="M92.91 4.63c-.275.597-.509 1.214-.83 1.784-2.077 3.665-4.74 6.865-8.02 9.491a12.334 12.334 0 01-4.118 2.157c-2.67.786-4.645-.776-4.64-3.563.002-1.415.349-2.838.582-4.25.188-1.118.444-2.228.329-3.603-.584.403-1.214.753-1.752 1.215-3.57 3.072-7.157 6.128-10.673 9.26-4.895 4.357-9.71 8.807-14.615 13.152-1.631 1.444-3.411 2.725-5.176 4.006-.71.516-1.526.94-2.357 1.212-1.93.628-3.478-.41-3.55-2.448-.04-1.065.15-2.192.482-3.21.821-2.533 1.794-5.013 2.683-7.526 1.708-4.827 3.45-9.644 5.059-14.507.548-1.657.73-3.432 1.08-5.156l-.404-.3c-.68.368-1.435.642-2.023 1.117-2.124 1.714-4.264 3.42-6.269 5.269-9.669 8.898-18.397 18.678-26.828 28.737-2.327 2.774-4.592 5.601-6.905 8.383-.608.734-1.28 1.418-1.964 2.087-.516.51-1.154.874-1.783.222-.561-.577-.164-1.125.239-1.623.73-.903 1.473-1.795 2.183-2.712 8.823-11.431 18.442-22.151 28.806-32.196 3.33-3.229 6.886-6.226 10.415-9.236C43.88 1.523 45.108.82 46.35.304c1.552-.647 2.741.033 3.042 1.69.191 1.05.231 2.204.022 3.243-.555 2.742-1.135 5.49-1.976 8.154-1.502 4.752-3.213 9.44-4.817 14.16-.479 1.413-.894 2.842-1.032 4.59.597-.34 1.244-.614 1.781-1.032 2.16-1.668 4.35-3.306 6.41-5.092 7.329-6.347 14.6-12.76 21.917-19.122 1.182-1.03 2.455-1.955 3.714-2.889.905-.67 1.908-1.168 3.037-.542 1.113.614 1.28 1.746 1.235 2.849-.057 1.426-.268 2.85-.424 4.273-.131 1.212-.283 2.422-.432 3.698 1.11.357 1.869-.136 2.532-.667 1.439-1.146 2.826-2.355 4.212-3.569 1.794-1.573 3.553-3.192 5.361-4.746.478-.41 1.09-.665 1.641-.99l.323.314.013.004z"
fill="#5550FF"
></path>
</svg>